<?xml version="1.0" encoding="utf-8"?>
<!-- Generator: Adobe Illustrator 23.0.4, SVG Export Plug-In . SVG Version: 6.00 Build 0)  -->
<svg version="1.1" id="Capa_1" xmlns="http://www.w3.org/2000/svg" xmlns:xlink="http://www.w3.org/1999/xlink" x="0px" y="0px"
	 viewBox="0 0 119.1 119.1" style="enable-background:new 0 0 119.1 119.1;" xml:space="preserve">
<style type="text/css">
	.st0{fill:none;stroke:#FED217;stroke-width:6;stroke-miterlimit:10;}
	.st1{fill:#CF1327;}
	.st2{fill:#162E68;}
</style>
<polyline class="st0" points="84,26.8 84,7.5 7.4,7.5 7.4,111.6 84,111.6 84,85.4 "/>
<g>
	<path class="st1" d="M52.8,70.5c2.3-2.1,10,9.6,17.3,8.7c7.3-1,23-26.6,26.3-24c3.3,2.6-11,16.5-9.4,18.5
		c1.6,2,15.9-19.5,19.3-16.3c3.3,3.1-13.8,19.6-11.8,21.7c1,1.1,14.2-18.3,17.7-13.8c2.2,2.8-12.6,17.1-11.6,18.7
		c1,1.6,11.2-11.8,13.8-9.4c2.6,2.4-12.6,25.8-33.6,27S48.4,74.4,52.8,70.5z"/>
	<path class="st2" d="M92.5,42.3C85,42.6,69.7,71.1,65,66.7c-3-3.9,12.9-17.1,10-20s-18.3,20.4-21.3,18c-3-2.4,14.2-20.9,12.6-22.9
		c-1.6-1.9-17.1,18.3-19,15.5C45.4,54.6,60.8,39,59.5,37.1S47.4,48.9,45.1,47.2s17.7-30.8,38.7-29.5c20.9,1.3,31.3,29.7,28.1,32.3
		C108.7,52.6,99.9,41.9,92.5,42.3z"/>
</g>
</svg>
