<?xml version="1.0" encoding="utf-8"?>
<!-- Generator: Adobe Illustrator 23.0.4, SVG Export Plug-In . SVG Version: 6.00 Build 0)  -->
<svg version="1.1" id="Capa_1" xmlns="http://www.w3.org/2000/svg" xmlns:xlink="http://www.w3.org/1999/xlink" x="0px" y="0px"
	 viewBox="0 0 40 40" style="enable-background:new 0 0 40 40;" xml:space="preserve">
<style type="text/css">
	.st0{fill:none;stroke:#FED217;stroke-width:3;stroke-miterlimit:10;}
	.st1{fill:#CF1327;}
	.st2{fill:#162E68;}
</style>
<g>
	<polyline class="st0" points="27.9,8.7 27.9,2 1.5,2 1.5,38 27.9,38 27.9,28.9 	"/>
	<g>
		<path class="st1" d="M17.1,23.8c0.8-0.7,3.5,3.3,6,3s7.9-9.2,9.1-8.3c1.2,0.9-3.8,5.7-3.3,6.4c0.5,0.7,5.5-6.7,6.7-5.6
			s-4.8,6.8-4.1,7.5c0.3,0.4,4.9-6.3,6.1-4.8c0.7,1-4.3,5.9-4,6.5s3.9-4.1,4.8-3.3c0.9,0.8-4.3,8.9-11.6,9.3
			C19.5,34.8,15.7,25.1,17.1,23.8z"/>
		<path class="st2" d="M30.9,14c-2.6,0.1-7.9,9.9-9.5,8.4c-1-1.4,4.4-5.9,3.4-6.9s-6.3,7-7.3,6.2c-1-0.8,4.9-7.2,4.3-7.9
			s-5.9,6.3-6.6,5.3s4.7-6.3,4.2-7c-0.4-0.7-4.2,4.1-5,3.5c-0.8-0.6,6.1-10.6,13.4-10.2s10.8,10.2,9.7,11.1
			C36.4,17.6,33.4,13.9,30.9,14z"/>
	</g>
</g>
</svg>
