<?xml version="1.0" encoding="iso-8859-1"?>
<!-- Generator: Adobe Illustrator 18.0.0, SVG Export Plug-In . SVG Version: 6.00 Build 0)  -->
<!DOCTYPE svg PUBLIC "-//W3C//DTD SVG 1.1//EN" "http://www.w3.org/Graphics/SVG/1.1/DTD/svg11.dtd">
<svg version="1.1" id="Capa_1" xmlns="http://www.w3.org/2000/svg" xmlns:xlink="http://www.w3.org/1999/xlink" x="0px" y="0px"
	 viewBox="0 0 370.071 370.071" style="enable-background:new 0 0 370.071 370.071;" xml:space="preserve">
<g>
	<path d="M352.751,166.88l9.906-9.906c4.781-4.781,7.414-11.138,7.414-17.899s-2.633-13.118-7.414-17.899
		c-3.068-3.068-6.786-5.246-10.843-6.417c5.529-9.667,4.177-22.228-4.067-30.473c-8.248-8.248-20.816-9.598-30.485-4.06
		c-1.146-3.975-3.278-7.723-6.404-10.85c-9.87-9.87-25.929-9.87-35.799,0l-42.963,42.963c-3.404-9.168-11.867-16.474-21.924-17.609
		c-10.576-1.188-20.373,4.343-25.132,13.169c-1.601-2.98-3.801-5.635-6.526-7.808c-5.287-4.215-11.899-6.119-18.618-5.361
		c-6.613,0.746-12.974,4.34-17.45,9.86c-1.927,2.376-3.421,5.013-4.446,7.775l-42.99-42.99c-4.781-4.781-11.138-7.414-17.899-7.414
		s-13.119,2.633-17.899,7.415c-3.126,3.126-5.259,6.874-6.405,10.849c-9.669-5.538-22.236-4.188-30.485,4.06
		c-8.244,8.244-9.596,20.806-4.067,30.473c-4.056,1.171-7.775,3.349-10.843,6.417C2.633,125.956,0,132.313,0,139.074
		s2.633,13.118,7.414,17.899l9.906,9.906c-3.683,1.225-7.059,3.293-9.883,6.117c-4.781,4.781-7.414,11.138-7.414,17.899
		s2.633,13.118,7.414,17.899l16.443,16.443c0.005,0.005,0.01,0.01,0.015,0.015l0.685,0.685c0.001,0.001,0.002,0.002,0.003,0.003
		l58.662,58.662c15.158,15.158,35.312,23.506,56.749,23.506c16.306,0,31.863-4.842,45.051-13.826
		c13.267,9.008,28.999,13.825,45.053,13.825c2.051,0,4.107-0.079,6.164-0.236c19.067-1.466,37.025-9.729,50.564-23.269l58.651-58.65
		c0.005-0.005,0.01-0.01,0.015-0.015l17.143-17.143c4.781-4.781,7.414-11.138,7.414-17.899s-2.633-13.118-7.414-17.899
		C359.81,170.173,356.434,168.105,352.751,166.88z M150.431,122.215c-0.33-2.925,0.724-6.135,2.891-8.807
		c2.182-2.691,5.151-4.429,8.146-4.766c3.001-0.341,5.958,0.512,8.321,2.396s3.851,4.575,4.192,7.6l3.898,33.605l-27.087-27.087
		L150.431,122.215z M93.145,274.704l-75.808-75.808c-2.137-2.137-3.313-4.978-3.313-8s1.177-5.863,3.313-8
		c2.137-2.137,4.978-3.314,8-3.314s5.863,1.177,8,3.314c0.002,0.002,0.003,0.003,0.005,0.005l38.867,38.867
		c1.367,1.367,3.158,2.05,4.95,2.05s3.583-0.684,4.95-2.05c2.734-2.733,2.734-7.166,0-9.899l-64.795-64.795
		c-4.411-4.411-4.411-11.589,0-16s11.589-4.411,16,0l64.795,64.795c1.367,1.367,3.158,2.05,4.95,2.05s3.583-0.684,4.95-2.05
		c2.734-2.734,2.734-7.166,0-9.899l-75.785-75.785c-4.411-4.411-4.411-11.589,0-16c4.411-4.411,11.589-4.411,16,0l75.785,75.785
		c2.733,2.733,7.166,2.733,9.899,0c2.734-2.733,2.734-7.166,0-9.899L69.112,95.275c-4.411-4.411-4.411-11.589,0-16
		s11.589-4.411,16,0l93.179,93.179c1.069,1.124,2.516,1.9,4.172,2.115c3.799,0.495,7.287-2.162,7.828-5.954
		c0.01-0.072,0.02-0.145,0.027-0.217l5.774-49.783c0.338-3.003,1.827-5.694,4.189-7.578c2.363-1.884,5.32-2.737,8.321-2.396
		c6.263,0.707,11.729,7.43,11.044,13.506l-13.593,110.869c-0.006,0.047-0.005,0.093-0.01,0.139
		c-0.005,0.048-0.015,0.094-0.019,0.142c-1.278,15.609-8.091,30.314-19.184,41.407c-12.514,12.514-29.152,19.406-46.849,19.406
		S105.658,287.218,93.145,274.704z M352.735,198.896l-16.445,16.444c-0.004,0.005-0.009,0.009-0.013,0.014l-59.35,59.35
		c-21.666,21.665-54.687,25.581-80.531,10.229c0.114-0.112,0.233-0.217,0.346-0.33c13.368-13.367,21.598-31.07,23.207-49.875
		c0-0.003,0.001-0.005,0.001-0.007l12.638-103.075l52.371-52.371c2.137-2.137,4.978-3.313,8-3.313s5.863,1.177,8,3.314
		c4.411,4.411,4.411,11.589,0,16l-64.795,64.795c-2.734,2.733-2.734,7.166,0,9.899c2.733,2.733,7.166,2.733,9.899,0l75.785-75.785
		c4.411-4.411,11.589-4.411,16,0s4.411,11.589,0,16l-75.785,75.785c-2.734,2.734-2.734,7.166,0,9.899
		c1.367,1.367,3.158,2.05,4.95,2.05s3.583-0.684,4.95-2.05l64.795-64.795c4.411-4.411,11.589-4.411,16,0s4.411,11.589,0,16
		l-64.795,64.795c-2.734,2.733-2.734,7.166,0,9.899c1.367,1.367,3.158,2.05,4.95,2.05s3.583-0.684,4.95-2.05l38.867-38.867
		c0.002-0.002,0.003-0.003,0.005-0.005c2.137-2.137,4.978-3.314,8-3.314s5.863,1.177,8,3.314
		C357.146,187.308,357.146,194.485,352.735,198.896z"/>
</g>
<g>
</g>
<g>
</g>
<g>
</g>
<g>
</g>
<g>
</g>
<g>
</g>
<g>
</g>
<g>
</g>
<g>
</g>
<g>
</g>
<g>
</g>
<g>
</g>
<g>
</g>
<g>
</g>
<g>
</g>
</svg>
