<?xml version="1.0"?>
<svg xmlns="http://www.w3.org/2000/svg" height="512px" viewBox="0 0 512 512.001" width="512px" class=""><g><path d="m395.019531 307.898438 12.429688-12.425782c17.582031-17.585937 17.578125-46.054687-.007813-63.640625-3.667968-3.671875-7.859375-6.625-12.40625-8.804687l12.414063-12.410156c17.582031-17.582032 17.578125-46.054688-.007813-63.640626-17.585937-17.582031-46.046875-17.585937-63.632812 0l-12.429688 12.429688c-2.140625-4.496094-5.074218-8.710938-8.792968-12.429688-3.667969-3.667968-7.859376-6.621093-12.40625-8.796874l33.628906-33.628907c17.582031-17.582031 17.582031-46.054687-.007813-63.640625-17.582031-17.582031-46.046875-17.585937-63.632812 0l-12.429688 12.429688c-2.140625-4.496094-5.074219-8.707032-8.792969-12.429688-17.582031-17.582031-46.042968-17.585937-63.628906 0l-56.300781 56.300782.84375-13.144532c1.585937-24.816406-17.214844-46.1875-42.035156-47.773437-24.75-1.578125-46.1875 17.273437-47.769531 42.03125l-10.269532 160.546875-35.390625 35.390625c-5.859375 5.859375-5.859375 15.355469 0 21.214843l74.246094 74.246094-10.609375 10.605469c-5.855469 5.859375-5.855469 15.355469 0 21.210937l106.070312 106.066407c2.8125 2.816406 6.625 4.394531 10.605469 4.394531 3.976563 0 7.792969-1.578125 10.605469-4.394531l38.121094-38.121094c55.804687-1.574219 109.261718-24.40625 149.15625-64.304687l24.855468-24.855469c17.582032-17.582031 17.589844-46.046875 0-63.632813-3.714843-3.71875-7.929687-6.648437-12.425781-8.792968zm-93.636719-245.773438c5.859376-5.859375 15.34375-5.859375 21.203126 0 5.859374 5.855469 5.875 15.347656.011718 21.214844-7.09375 7.089844-114.019531 114.019531-119.941406 119.9375l.84375-13.144532c.554688-8.699218-1.382812-17.171874-5.507812-24.613281.601562-.605469 98.964843-98.96875 103.390624-103.394531zm-265.167968 222.742188 28.785156-28.785157c2.578125-2.578125 4.128906-6.011719 4.363281-9.648437l10.628907-166.195313c.527343-8.25 7.667968-14.539062 15.917968-14.007812 8.269532.527343 14.539063 7.648437 14.007813 15.921875l-3.183594 49.78125c-2.820313 9.128906 4.050781 15.332031 4.109375 15.433594 7.023438 7.03125 18.816406 5.398437 23.683594-3.238282l82-82.003906c5.863281-5.859375 15.347656-5.863281 21.207031 0 5.847656 5.847656 5.855469 15.355469.019531 21.203125l-62.234375 62.234375c-4.421875-1.792969-9.152343-2.890625-14.054687-3.203125-24.738282-1.578125-46.1875 17.273437-47.773438 42.027344l-10.269531 160.546875-3.570313 3.574218zm350.019531 74.242187-24.855469 24.859375c-35.859375 35.855469-83.535156 55.605469-134.246094 55.605469-3.980468 0-7.792968 1.578125-10.605468 4.394531l-31.820313 31.816406-84.851562-84.851562 28.785156-28.789063c2.578125-2.578125 4.128906-6.007812 4.363281-9.648437l10.628906-166.195313c.527344-8.25 7.671876-14.535156 15.921876-14.003906 8.265624.527344 14.535156 7.648437 14.003906 15.921875l-3.183594 49.78125c-2.820312 9.128906 4.054688 15.328125 4.109375 15.433594 7.023437 7.03125 18.816406 5.398437 23.683594-3.238282l82.003906-82.003906c5.855469-5.859375 15.34375-5.863281 21.203125 0 5.835938 5.835938 5.855469 15.320313.050781 21.167969l-63.6875 63.6875c-5.855469 5.859375-5.855469 15.355469 0 21.214844 5.859375 5.855469 15.355469 5.855469 21.214844 0 21.363281-21.363281 71.097656-71.097657 106.070313-106.070313 5.859374-5.859375 15.34375-5.863281 21.203124 0 5.859376 5.855469 5.871094 15.347656.007813 21.210938-34.398437 34.402344-84.988281 84.988281-106.070313 106.070312-5.855468 5.859375-5.855468 15.355469 0 21.214844 5.859376 5.859375 15.355469 5.859375 21.214844 0l63.644532-63.644531c5.859374-5.859375 15.34375-5.859375 21.203124 0 5.859376 5.859375 5.875 15.347656.011719 21.214843-5.128906 5.128907-57.484375 57.484376-63.644531 63.644532-5.859375 5.855468-5.859375 15.355468 0 21.210937 5.855469 5.859375 15.355469 5.859375 21.210938 0l21.3125-21.308593c5.855468-5.753907 15.300781-5.71875 21.121093.101562 5.855469 5.859375 5.859375 15.34375-.003906 21.203125zm0 0" data-original="#000000" class="active-path" data-old_color="#000000" fill="#FFFFFF"/><path d="m497 90h-30c-8.285156 0-15 6.714844-15 15s6.714844 15 15 15h30c8.285156 0 15-6.714844 15-15s-6.714844-15-15-15zm0 0" data-original="#000000" class="active-path" data-old_color="#000000" fill="#FFFFFF"/><path d="m477.605469 34.394531c-5.855469-5.859375-15.351563-5.859375-21.210938 0l-30 30c-5.859375 5.859375-5.859375 15.355469 0 21.210938 5.855469 5.859375 15.355469 5.859375 21.210938 0l30-30c5.859375-5.855469 5.859375-15.351563 0-21.210938zm0 0" data-original="#000000" class="active-path" data-old_color="#000000" fill="#FFFFFF"/><path d="m392 15v30c0 8.285156 6.714844 15 15 15s15-6.714844 15-15v-30c0-8.285156-6.714844-15-15-15s-15 6.714844-15 15zm0 0" data-original="#000000" class="active-path" data-old_color="#000000" fill="#FFFFFF"/></g> </svg>
