<svg height="512" viewBox="0 0 192 192" width="512" xmlns="http://www.w3.org/2000/svg"><g id="_06-toxic" data-name="06-toxic"><path d="m96 72a24 24 0 1 0 24 24 24.027 24.027 0 0 0 -24-24zm0 32a8 8 0 1 1 8-8 8.009 8.009 0 0 1 -8 8z"/><path d="m67.379 56.647a8.082 8.082 0 0 0 10.743 3.574 39.972 39.972 0 0 1 35.756 0 8.083 8.083 0 0 0 10.743-3.574l17.9-35.793a8 8 0 0 0 -3.572-10.73 96.146 96.146 0 0 0 -85.89 0 8 8 0 0 0 -3.572 10.73zm28.621-40.647a79.285 79.285 0 0 1 28.455 5.2l-10.818 21.637a56.241 56.241 0 0 0 -35.274 0l-10.818-21.637a79.285 79.285 0 0 1 28.455-5.2z"/><path d="m73.954 129.373a39.975 39.975 0 0 1 -17.879-30.966 8.083 8.083 0 0 0 -8.466-7.517l-39.946 2.4a8 8 0 0 0 -7.507 8.458 96.149 96.149 0 0 0 42.944 74.382 8.075 8.075 0 0 0 11.079-2.272l22.05-33.4a8.081 8.081 0 0 0 -2.275-11.085zm-28.5 28.669a80.426 80.426 0 0 1 -28.454-49.286l24.145-1.449a56.234 56.234 0 0 0 17.637 30.549z"/><path d="m184.337 93.288-39.946-2.4a8.083 8.083 0 0 0 -8.466 7.517 39.975 39.975 0 0 1 -17.879 30.966 8.081 8.081 0 0 0 -2.276 11.089l22.05 33.4a8.075 8.075 0 0 0 11.08 2.27 96.149 96.149 0 0 0 42.945-74.384 8 8 0 0 0 -7.508-8.458zm-19.055 42.712a79.294 79.294 0 0 1 -18.732 22.042l-13.328-20.186a56.234 56.234 0 0 0 17.637-30.549l24.141 1.449a79.255 79.255 0 0 1 -9.718 27.244z"/></g></svg>