<?xml version="1.0"?>
<svg xmlns="http://www.w3.org/2000/svg" height="512px" viewBox="0 0 192 192" width="512px" class=""><g><g id="_09-toxic" data-name="09-toxic"><path d="m120 96a24 24 0 1 0 -24 24 24.027 24.027 0 0 0 24-24zm-24 8a8 8 0 1 1 8-8 8.009 8.009 0 0 1 -8 8z" data-original="#000000" class="active-path" data-old_color="#000000" fill="#FFFFFF"/><path d="m69.418 65.062a8 8 0 0 0 10.9 3.047 31.976 31.976 0 0 1 31.362 0 8 8 0 0 0 10.9-3.047l23.54-41.847a8 8 0 0 0 -3.044-10.891 96.074 96.074 0 0 0 -94.152 0 8 8 0 0 0 -3.044 10.891zm26.582-49.062a80.171 80.171 0 0 1 32.058 6.691l-15.828 28.138a47.97 47.97 0 0 0 -32.46 0l-15.828-28.138a80.171 80.171 0 0 1 32.058-6.691z" data-original="#000000" class="active-path" data-old_color="#000000" fill="#FFFFFF"/><path d="m80.686 123.526a31.973 31.973 0 0 1 -15.68-27.16 8 8 0 0 0 -8-7.918h-.09l-48.01.538a8 8 0 0 0 -7.906 8.082 96.079 96.079 0 0 0 47.076 81.539 8.074 8.074 0 0 0 10.95-2.807l24.474-41.311a8 8 0 0 0 -2.811-10.963zm-31.145 36.891a80.147 80.147 0 0 1 -32.058-55.525l32.284-.362a47.961 47.961 0 0 0 16.233 28.111z" data-original="#000000" class="active-path" data-old_color="#000000" fill="#FFFFFF"/><path d="m183.094 88.987-48.01-.538a8 8 0 0 0 -8.09 7.917 31.979 31.979 0 0 1 -15.68 27.16 8 8 0 0 0 -2.811 10.963l24.471 41.311a8.074 8.074 0 0 0 10.954 2.809 96.079 96.079 0 0 0 47.072-81.541 8 8 0 0 0 -7.906-8.081zm-18.812 47.013a80.183 80.183 0 0 1 -21.823 24.417l-16.459-27.776a47.975 47.975 0 0 0 16.229-28.111l32.284.362a80.186 80.186 0 0 1 -10.231 31.108z" data-original="#000000" class="active-path" data-old_color="#000000" fill="#FFFFFF"/></g></g> </svg>
