<?xml version="1.0"?>
<svg xmlns="http://www.w3.org/2000/svg" id="regular" enable-background="new 0 0 24 24" height="512px" viewBox="0 0 24 24" width="512px" class=""><g><path d="m15.764 3.329-.74 2.043.353-2.915c.312-2.861-4.037-3.417-4.347-.487l-.397 3.36-.433-2.945c-.426-2.887-4.72-2.229-4.301.646l1.06 7.292c-2.04.374-1.919 2.65-2.724 4.474-1.047 3.203 1.527 5.097 2.494 6.906.141.204.215.445.215.696v.85c0 .414.336.75.75.75s.75-.336.75-.75v-.849c0-2.461-3.751-4.177-2.783-7.137l.955-2.92c.109-.335.413-.561.754-.561l4.632.05c.026.063-.007.098-.019.11-1.577 1.607-3.424 1.214-3.81 1.271-.329 0-.62.215-.717.529-.378 1.229 2.464 1.131 3.84 5.341.128.394.551.607.946.479.394-.129.609-.553.48-.946-.503-1.537-1.383-2.928-2.537-4.032 1.136-.246 2.748-1.108 3.176-2.058 1 .181.634-.304 3.812-8.682.305-.825 1.59-.309 1.287.509l-3.161 8.714-1.268 2.237c-1.185 2.094 1.393 4.403 3.294 2.804-.486 2.48-1.989 2.467-1.989 4.378v.762c0 .414.336.75.75.75s.75-.336.75-.75v-.762c0-1.156 2.57-2.441 2.026-6.317l-.053-.391.372-.657c.597-1.054.239-2.408-.799-3.02-.32-.188-.674-.278-1.033-.288l2.519-6.944c1.005-2.724-3.126-4.177-4.104-1.54zm-7.049-.725 1.13 7.679h-1.377l-1.086-7.469c-.129-.888 1.193-1.157 1.333-.21zm2.842 7.679.963-8.146c.104-.974 1.465-.751 1.367.149l-1.008 8.328c-.572-.437-1.117-.306-1.322-.331zm6.318 4.099-1.354 2.391c-.455.806-1.651.092-1.187-.728l1.354-2.389c.459-.806 1.653-.093 1.187.726z" data-original="#000000" class="active-path" data-old_color="#000000" fill="#FFFFFF"/></g> </svg>
