<?xml version="1.0" encoding="iso-8859-1"?>
<!-- Generator: Adobe Illustrator 19.0.0, SVG Export Plug-In . SVG Version: 6.00 Build 0)  -->
<svg version="1.1" id="Capa_1" xmlns="http://www.w3.org/2000/svg" xmlns:xlink="http://www.w3.org/1999/xlink" x="0px" y="0px"
	 viewBox="0 0 512 512" style="enable-background:new 0 0 512 512;" xml:space="preserve">
<g>
	<g>
		<g>
			<path d="M256,0C114.833,0,0,114.833,0,256s114.833,256,256,256s256-114.833,256-256S397.167,0,256,0z M256,490.667
				C126.604,490.667,21.333,385.396,21.333,256S126.604,21.333,256,21.333S490.667,126.604,490.667,256S385.396,490.667,256,490.667
				z"/>
			<path d="M394.667,320H117.333c-3.25,0-6.333,1.5-8.354,4.042c-2.042,2.563-2.771,5.896-2.021,9.083
				C122.667,399.688,185.354,448,256,448c70.563,0,133.25-48.313,149.042-114.875c0.75-3.167,0.021-6.521-2-9.063
				C401.021,321.5,397.938,320,394.667,320z M256,426.667c-20.297,0-40.017-4.93-57.779-13.542
				c6.829-4.204,15.408-7.792,25.779-7.792c9.208,0,18.167,2.5,26.625,7.417c3.333,1.958,7.417,1.958,10.75,0
				c16.794-9.772,36.387-9.339,52.678,0.24C296.217,421.699,276.389,426.667,256,426.667z M334.021,400.921
				c-22.56-17.997-52.629-21.858-78.021-9.462c-25.096-12.227-54.749-8.66-77.762,9.723c-21.078-15.061-37.78-35.789-46.592-59.848
				h248.688C371.538,365.263,354.938,385.879,334.021,400.921z"/>
			<path d="M170.667,234.667c35.292,0,64-28.708,64-64c0-35.292-28.708-64-64-64c-35.292,0-64,28.708-64,64
				C106.667,205.958,135.375,234.667,170.667,234.667z M170.667,128c23.521,0,42.667,19.146,42.667,42.667
				c0,23.521-19.146,42.667-42.667,42.667c-4.214,0-8.204-0.803-12.052-1.947c4.794-8.173,4.055-18.717-2.948-25.72
				c-7.021-7.021-17.546-7.763-25.721-2.953c-1.143-3.846-1.945-7.836-1.945-12.047C128,147.146,147.146,128,170.667,128z"/>
			<path d="M341.333,106.667c-35.292,0-64,28.708-64,64c0,35.292,28.708,64,64,64c35.292,0,64-28.708,64-64
				C405.333,135.375,376.625,106.667,341.333,106.667z M341.333,213.333c-23.521,0-42.667-19.146-42.667-42.667
				c0-23.521,19.146-42.667,42.667-42.667c4.214,0,8.203,0.803,12.051,1.947c-4.793,8.172-4.052,18.719,2.949,25.72
				c4.167,4.167,9.625,6.229,15.083,6.229c3.738,0,7.311-1.332,10.635-3.281c1.145,3.848,1.948,7.839,1.948,12.052
				C384,194.188,364.854,213.333,341.333,213.333z"/>
		</g>
	</g>
</g>
<g>
</g>
<g>
</g>
<g>
</g>
<g>
</g>
<g>
</g>
<g>
</g>
<g>
</g>
<g>
</g>
<g>
</g>
<g>
</g>
<g>
</g>
<g>
</g>
<g>
</g>
<g>
</g>
<g>
</g>
</svg>
