<svg id="Layer_1" enable-background="new 0 0 512 512" height="512" viewBox="0 0 512 512" width="512" xmlns="http://www.w3.org/2000/svg"><g><path d="m256 0c-141.159 0-256 114.841-256 256s114.841 256 256 256 256-114.841 256-256-114.841-256-256-256zm0 482c-124.617 0-226-101.383-226-226s101.383-226 226-226 226 101.383 226 226-101.383 226-226 226z"/><path d="m374.932 292h-237.864c-8.284 0-15 6.716-15 15v2.068c0 73.851 60.081 133.932 133.932 133.932s133.932-60.081 133.932-133.931v-2.069c0-8.284-6.716-15-15-15zm-161.297 111.964c8.296-8.952 24.455-14.964 41.838-14.964 17.668 0 34.004 6.213 42.155 15.294-12.752 5.596-26.834 8.706-41.628 8.706-15.081 0-29.419-3.233-42.365-9.036zm109.545-15.657c-13.381-17.769-39.037-29.307-67.707-29.307-28.319 0-53.795 11.194-67.31 28.739-19.009-16.414-32.033-39.581-35.294-65.738h206.262c-3.299 26.458-16.584 49.861-35.951 66.306z"/><path d="m138.954 166.172 60.392 20.938-60.447 21.229c-7.816 2.745-11.927 11.307-9.182 19.123 2.168 6.172 7.962 10.034 14.152 10.034 1.648 0 3.326-.274 4.971-.852l64.533-22.665c11.952-4.197 19.655-14.773 19.627-26.944-.029-12.166-7.779-22.707-19.743-26.854l-64.475-22.354c-7.829-2.712-16.372 1.431-19.086 9.259s1.431 16.372 9.258 19.086z"/><path d="m298.626 213.98 64.534 22.665c1.645.578 3.321.852 4.971.852 6.19 0 11.985-3.862 14.152-10.034 2.745-7.816-1.365-16.378-9.182-19.123l-60.447-21.229 60.392-20.938c7.827-2.714 11.972-11.259 9.258-19.086-2.713-7.828-11.257-11.972-19.086-9.259l-64.474 22.354c-11.965 4.148-19.715 14.689-19.744 26.854-.028 12.172 7.675 22.748 19.626 26.944z"/></g></svg>